<?xml version="1.0" standalone="no"?>
<!DOCTYPE svg PUBLIC "-//W3C//DTD SVG 20010904//EN"
 "http://www.w3.org/TR/2001/REC-SVG-20010904/DTD/svg10.dtd">
<svg version="1.0" xmlns="http://www.w3.org/2000/svg"
 width="260.000000pt" height="260.000000pt" viewBox="0 0 260.000000 260.000000"
 preserveAspectRatio="xMidYMid meet">
<metadata>
Created by potrace 1.14, written by Peter Selinger 2001-2017
</metadata>
<g transform="translate(0.000000,260.000000) scale(0.100000,-0.100000)"
fill="#000000" stroke="none">
<path d="M440 2519 c-85 -15 -174 -61 -244 -129 -69 -66 -105 -124 -133 -215
-17 -56 -18 -113 -18 -895 l0 -835 23 -59 c33 -89 64 -135 131 -199 72 -69
159 -112 256 -127 47 -7 335 -10 875 -8 l805 3 63 24 c112 41 219 136 271 238
51 102 51 98 51 971 0 871 0 874 -50 972 -53 104 -166 203 -277 243 -57 21
-69 22 -878 23 -469 1 -844 -2 -875 -7z m939 -475 c32 -20 100 -107 153 -199
22 -38 50 -80 61 -92 24 -27 67 -30 102 -7 13 9 29 13 35 9 13 -8 52 19 42 30
-4 5 -1 5 5 1 7 -4 27 1 43 11 24 14 34 15 48 6 14 -9 17 -24 15 -84 -1 -61
-32 -233 -59 -326 -4 -15 -2 -23 5 -23 7 0 10 4 6 9 -3 5 -1 12 5 16 5 3 10 2
10 -4 0 -14 82 12 176 56 101 46 175 51 206 13 14 -17 18 -33 14 -55 -7 -34
-39 -81 -54 -78 -5 1 -20 -18 -32 -42 -39 -75 -147 -201 -219 -254 -101 -75
-261 -141 -466 -192 -124 -31 -186 -28 -331 14 -331 97 -459 180 -608 396 -41
58 -83 115 -95 125 -27 25 -28 79 -1 106 29 29 68 25 141 -13 81 -42 195 -81
210 -71 8 4 9 3 5 -4 -10 -17 3 -15 22 4 14 15 17 15 30 -2 14 -18 14 -17 8 6
-15 56 -56 262 -56 281 0 11 -7 31 -16 44 -20 30 -12 70 16 85 17 9 33 3 95
-35 40 -25 79 -53 86 -61 7 -9 32 -29 55 -45 l42 -28 22 52 c99 232 181 361
232 364 12 1 33 -5 47 -13z"/>
<path d="M1710 1739 c0 -5 5 -7 10 -4 6 3 10 8 10 11 0 2 -4 4 -10 4 -5 0 -10
-5 -10 -11z"/>
<path d="M1081 1494 c0 -11 3 -14 6 -6 3 7 2 16 -1 19 -3 4 -6 -2 -5 -13z"/>
<path d="M1305 1109 c-3 -4 -19 -10 -35 -14 -31 -7 -80 -56 -80 -81 0 -43 77
-157 121 -180 29 -15 32 -14 66 12 19 15 53 54 74 87 32 50 38 67 33 92 -7 33
-28 61 -59 78 -24 12 -114 17 -120 6z"/>
<path d="M1638 1045 c-24 -35 -145 -137 -227 -192 -2 -2 -2 -5 1 -8 8 -8 159
35 174 50 17 17 18 29 2 19 -7 -4 -3 6 9 22 11 16 25 44 31 62 6 18 21 46 32
62 12 17 19 30 15 30 -3 0 -20 -20 -37 -45z"/>
<path d="M1040 1011 c0 -25 21 -62 32 -55 6 4 8 3 5 -3 -4 -6 -1 -22 6 -37 12
-25 40 -39 140 -65 34 -9 37 -8 25 6 -7 9 -47 41 -88 73 -41 32 -81 65 -89 74
-15 18 -31 21 -31 7z"/>
</g>
</svg>
